<svg width="130" height="250" viewBox="0 0 130 250" fill="none" xmlns="http://www.w3.org/2000/svg">
<path d="M3.7597e-05 34.9704L6.11447e-06 215.029C1.88328e-06 239.229 23.9474 256.363 46.3299 247.736C95.2495 228.881 130 181.04 130 124.998C130 68.9582 95.2495 21.117 46.33 2.26156C42.3231 0.71762 38.2624 2.65401e-05 34.3024 2.58477e-05C16.1387 -0.00348629 4.10708e-05 15.1026 3.7597e-05 34.9704Z" fill="url(#paint0_linear_16879_40393)"/>
<path d="M0 201.488C20.8756 201.488 39.7761 192.919 53.4698 179.084C67.1618 165.253 75.6454 146.122 75.6454 125.072C75.6454 82.9373 41.713 48.6601 2.64525e-05 48.6601L0 201.488Z" fill="white" fill-opacity="0.25"/>
<defs>
<linearGradient id="paint0_linear_16879_40393" x1="34.0697" y1="303.509" x2="203.412" y2="91.4966" gradientUnits="userSpaceOnUse">
<stop stop-color="#760DFF"/>
<stop offset="1" stop-color="#10CDFF"/>
</linearGradient>
</defs>
</svg>
