<svg width="1000" height="250" viewBox="0 0 1000 250" fill="none" xmlns="http://www.w3.org/2000/svg">
<path d="M870 34.9704L870 215.029C870 239.229 893.947 256.363 916.33 247.736C965.249 228.881 1000 181.04 1000 124.998C1000 68.9582 965.249 21.117 916.33 2.26156C912.323 0.71762 908.262 2.65401e-05 904.302 2.58477e-05C886.139 -0.00348629 870 15.1026 870 34.9704Z" fill="url(#paint0_linear_10186_1730)"/>
<path d="M870 201.488C890.876 201.488 909.776 192.919 923.47 179.084C937.162 165.253 945.645 146.122 945.645 125.072C945.645 82.9373 911.713 48.6601 870 48.6601L870 201.488Z" fill="white" fill-opacity="0.25"/>
<path d="M736.398 200.834C704.684 200.834 682.462 177.749 682.462 144.74C682.462 111.3 704.252 88.2154 735.535 88.2154C767.465 88.2154 787.745 109.574 787.745 142.799V150.781L707.488 150.997C709.43 169.767 719.354 179.259 736.829 179.259C751.284 179.259 760.777 173.65 763.797 163.51H788.177C783.646 186.811 764.229 200.834 736.398 200.834ZM735.751 109.79C720.217 109.79 710.724 118.204 708.135 134.169H761.64C761.64 119.498 751.5 109.79 735.751 109.79Z" fill="white"/>
<path d="M587.126 165.668H612.153C612.369 174.945 619.272 180.77 631.354 180.77C643.651 180.77 650.34 175.808 650.34 168.041C650.34 162.647 647.535 158.764 638.042 156.606L618.841 152.076C599.64 147.761 590.363 138.7 590.363 121.656C590.363 100.729 608.054 88.2154 632.648 88.2154C656.596 88.2154 672.777 102.023 672.993 122.734H647.966C647.751 113.673 641.71 107.848 631.57 107.848C621.214 107.848 615.173 112.594 615.173 120.577C615.173 126.618 619.92 130.501 628.981 132.659L648.182 137.189C666.089 141.288 675.15 149.487 675.15 165.883C675.15 187.458 656.812 200.834 630.491 200.834C603.954 200.834 587.126 186.595 587.126 165.668Z" fill="white"/>
<path d="M550.398 91.4517H576.718V198.029H552.339L550.398 183.79C543.925 193.93 530.118 200.834 515.879 200.834C491.284 200.834 476.829 184.222 476.829 158.117V91.4517H503.15V148.84C503.15 169.12 511.132 177.318 525.803 177.318C542.415 177.318 550.398 167.61 550.398 147.33V91.4517Z" fill="white"/>
<path d="M400.915 91.4517H416.233V78.5071C416.233 49.5973 431.551 37.5156 454.636 37.5156C458.735 37.5156 463.697 37.7314 468.228 38.5943V61.0318H458.951C445.574 61.0318 442.338 67.9356 442.338 78.5071V91.4517H467.796V113.458H442.338V198.029H416.233V113.458H400.915V91.4517Z" fill="white"/>
<path d="M309.184 198.029H284.805V37.5156H311.125V106.985C318.029 95.1194 332.268 87.9998 348.449 87.9998C378.869 87.9998 397.423 111.732 397.423 145.388C397.423 178.181 377.359 200.834 346.723 200.834C330.758 200.834 317.166 193.715 310.91 181.417L309.184 198.029ZM311.341 144.309C311.341 163.51 323.207 176.671 341.33 176.671C359.884 176.671 370.886 163.295 370.886 144.309C370.886 125.324 359.884 111.732 341.33 111.732C323.207 111.732 311.341 125.108 311.341 144.309Z" fill="white"/>
<path d="M218.864 200.834C187.15 200.834 164.928 177.749 164.928 144.74C164.928 111.3 186.718 88.2154 218.001 88.2154C249.931 88.2154 270.211 109.574 270.211 142.799V150.781L189.954 150.997C191.896 169.767 201.82 179.259 219.296 179.259C233.751 179.259 243.243 173.65 246.264 163.51H270.643C266.112 186.811 246.695 200.834 218.864 200.834ZM218.217 109.79C202.683 109.79 193.191 118.204 190.602 134.169H244.106C244.106 119.498 233.966 109.79 218.217 109.79Z" fill="white"/>
<path d="M34.5191 198.029L0 91.4517H27.3996L41.4229 137.19C43.7961 145.604 45.9535 154.881 47.8952 164.805C49.8369 154.449 51.7787 147.761 55.2306 137.19L69.9012 91.4517H96.6535L110.893 137.19C112.187 141.504 116.502 157.47 117.796 164.589C119.522 156.607 122.974 143.878 124.916 137.19L139.155 91.4517H166.986L130.094 198.029H105.499L90.8283 151.86C86.5135 137.837 84.1404 127.697 83.2774 122.303C82.1987 127.265 80.2569 134.816 74.8633 152.292L60.1927 198.029H34.5191Z" fill="white"/>
<defs>
<linearGradient id="paint0_linear_10186_1730" x1="904.07" y1="303.509" x2="1073.41" y2="91.4966" gradientUnits="userSpaceOnUse">
<stop stop-color="#760DFF"/>
<stop offset="1" stop-color="#10CDFF"/>
</linearGradient>
</defs>
</svg>
